<?xml version="1.0" encoding="UTF-8" standalone="no"?>
<!-- Created with Inkscape (http://www.inkscape.org/) -->

<svg
   xmlns:dc="http://purl.org/dc/elements/1.1/"
   xmlns:cc="http://creativecommons.org/ns#"
   xmlns:rdf="http://www.w3.org/1999/02/22-rdf-syntax-ns#"
   xmlns:svg="http://www.w3.org/2000/svg"
   xmlns="http://www.w3.org/2000/svg"
   xmlns:sodipodi="http://sodipodi.sourceforge.net/DTD/sodipodi-0.dtd"
   xmlns:inkscape="http://www.inkscape.org/namespaces/inkscape"
   width="210mm"
   height="297mm"
   viewBox="0 0 210 297"
   version="1.1"
   id="svg8"
   inkscape:version="0.92.3 (2405546, 2018-03-11)"
   sodipodi:docname="multi_choice.svg">
  <defs
     id="defs2" />
  <sodipodi:namedview
     id="base"
     pagecolor="#ffffff"
     bordercolor="#666666"
     borderopacity="1.0"
     inkscape:pageopacity="0.0"
     inkscape:pageshadow="2"
     inkscape:zoom="0.35"
     inkscape:cx="-207.72514"
     inkscape:cy="673.92443"
     inkscape:document-units="mm"
     inkscape:current-layer="layer1"
     showgrid="false"
     inkscape:window-width="1600"
     inkscape:window-height="835"
     inkscape:window-x="0"
     inkscape:window-y="0"
     inkscape:window-maximized="1" />
  <metadata
     id="metadata5">
    <rdf:RDF>
      <cc:Work
         rdf:about="">
        <dc:format>image/svg+xml</dc:format>
        <dc:type
           rdf:resource="http://purl.org/dc/dcmitype/StillImage" />
        <dc:title></dc:title>
      </cc:Work>
    </rdf:RDF>
  </metadata>
  <g
     inkscape:label="Layer 1"
     inkscape:groupmode="layer"
     id="layer1">
    <rect
       id="rect3721"
       width="39.309525"
       height="41.577381"
       x="11.339285"
       y="10.494048"
       style="fill:none;stroke:#000000;stroke-width:3.96499991;stroke-linecap:round;stroke-linejoin:bevel;stroke-miterlimit:4;stroke-dasharray:none;stroke-opacity:1"
       inkscape:export-xdpi="16.2353"
       inkscape:export-ydpi="16.2353" />
    <rect
       id="rect3721-3"
       width="39.309525"
       height="41.577381"
       x="11.339287"
       y="68.324402"
       style="fill:none;stroke:#000000;stroke-width:3.96499991;stroke-linecap:round;stroke-linejoin:bevel;stroke-miterlimit:4;stroke-dasharray:none;stroke-opacity:1"
       inkscape:export-xdpi="16.2353"
       inkscape:export-ydpi="16.2353" />
    <rect
       id="rect3721-6"
       width="39.309525"
       height="41.577381"
       x="65.767853"
       y="10.494048"
       style="fill:none;stroke:#000000;stroke-width:3.96499991;stroke-linecap:round;stroke-linejoin:bevel;stroke-miterlimit:4;stroke-dasharray:none;stroke-opacity:1"
       inkscape:export-xdpi="16.2353"
       inkscape:export-ydpi="16.2353" />
    <rect
       id="rect3721-3-7"
       width="39.309525"
       height="41.577381"
       x="65.956848"
       y="68.324402"
       style="fill:none;stroke:#000000;stroke-width:3.96499991;stroke-linecap:round;stroke-linejoin:bevel;stroke-miterlimit:4;stroke-dasharray:none;stroke-opacity:1"
       inkscape:export-xdpi="16.2353"
       inkscape:export-ydpi="16.2353" />
    <path
       style="fill:#ff0000;stroke:#000080;stroke-width:3.96499991;stroke-linecap:round;stroke-linejoin:bevel;stroke-miterlimit:4;stroke-dasharray:none;stroke-opacity:1"
       id="path4605"
       d="m 16.833551,27.988421 c 1.10275,0.06377 2.08326,0.57205 3.01752,1.121831 1.1446,0.67356 1.52138,0.963967 2.63491,1.731338 1.78033,1.273497 3.37201,2.784824 4.56144,4.632507 0.67732,1.05215 0.8811,1.570088 1.41538,2.690873 1.07149,2.347712 1.53281,4.882436 1.90724,7.415761 0.15928,1.132273 0.27253,2.269968 0.33898,3.411254 0.0692,1.268291 0.14651,0.671452 -2.48898,1.640118 -0.0965,0.03548 0.0208,-0.204706 0.0356,-0.306481 0.0351,-0.241019 0.0761,-0.481144 0.11413,-0.721719 0.0976,-0.4679 0.17483,-0.940539 0.29292,-1.4037 1.39737,-5.480769 4.08993,-10.522137 6.67814,-15.511602 1.29424,-2.420234 2.62003,-4.825458 4.05205,-7.167536 0.71356,-1.167037 1.47524,-2.303494 2.22459,-3.447531 1.16605,-1.770198 2.47384,-3.439541 3.80701,-5.085395 1.31083,-1.595782 2.56341,-3.236338 3.79636,-4.892428 0.44755,-0.555104 0.86318,-1.156446 1.42797,-1.601663 0.87533,-0.5013059 1.78299,-1.5580629 2.88274,-1.4384099 0,0 -2.28315,1.6571219 -2.28315,1.6571219 v 0 c -0.82223,0.104762 -3.2173,2.345002 2.0084,-1.2275919 -0.68002,0.314907 -1.08727,1.0340519 -1.58648,1.5568849 -1.28569,1.657003 -2.56525,3.318142 -3.89269,4.942368 -1.3242,1.636112 -2.58378,3.319084 -3.78083,5.050409 -0.8263,1.177896 -1.67496,2.340887 -2.4669,3.542556 -1.5591,2.365753 -2.99944,4.807982 -4.3649,7.290001 -2.55467,4.835126 -5.23189,9.785099 -6.23144,15.222831 -0.0803,0.437034 -0.10925,0.881967 -0.16387,1.322951 -0.0117,0.22401 -0.0254,0.447926 -0.0352,0.672026 -0.004,0.08601 0.0671,0.211931 -0.006,0.258207 -2.92837,1.866797 -2.51706,2.186802 -2.48473,0.911463 0.014,-1.156401 -0.0542,-2.312609 -0.17571,-3.462462 -0.30669,-2.527861 -0.74002,-5.049226 -1.7837,-7.393688 -0.51725,-1.102778 -0.72029,-1.626283 -1.37867,-2.661415 -1.16349,-1.829263 -2.73459,-3.322267 -4.50033,-4.565449 -1.75094,-1.155684 -3.6336,-2.55361 -5.82513,-2.546694 0,0 2.25277,-1.636736 2.25277,-1.636736 z"
       inkscape:connector-curvature="0"
       inkscape:export-xdpi="16.2353"
       inkscape:export-ydpi="16.2353" />
    <path
       style="fill:#ff0000;stroke:#000080;stroke-width:3.96499991;stroke-linecap:round;stroke-linejoin:bevel;stroke-miterlimit:4;stroke-dasharray:none;stroke-opacity:1"
       id="path4605-5"
       d="m 71.451109,85.818775 c 1.10275,0.06377 2.08326,0.57205 3.01752,1.121831 1.1446,0.67356 1.521381,0.963967 2.63491,1.731338 1.780331,1.273497 3.372011,2.784823 4.561441,4.632507 0.67732,1.05215 0.8811,1.570088 1.41538,2.690873 1.07149,2.347712 1.53281,4.882436 1.90724,7.415756 0.15928,1.13228 0.27253,2.26998 0.33898,3.41126 0.0692,1.26829 0.14651,0.67145 -2.48898,1.64012 -0.0965,0.0355 0.0208,-0.20471 0.0356,-0.30648 0.0351,-0.24102 0.0761,-0.48114 0.11413,-0.72172 0.0976,-0.4679 0.17483,-0.94054 0.29292,-1.4037 1.39737,-5.48077 4.08993,-10.522141 6.67814,-15.511605 1.29424,-2.420234 2.62003,-4.825458 4.05205,-7.167536 0.713559,-1.167037 1.475239,-2.303494 2.224589,-3.447531 1.166054,-1.770198 2.473844,-3.439541 3.807011,-5.085395 1.31083,-1.595782 2.56341,-3.236338 3.79636,-4.892428 0.44755,-0.555104 0.86318,-1.156446 1.42797,-1.601663 0.87533,-0.501306 1.78299,-1.558063 2.88274,-1.43841 0,0 -2.28315,1.657122 -2.28315,1.657122 v 0 c -0.82223,0.104762 -3.2173,2.345002 2.0084,-1.227592 -0.68002,0.314907 -1.08727,1.034052 -1.58648,1.556885 -1.28569,1.657003 -2.56525,3.318142 -3.89269,4.942368 -1.3242,1.636112 -2.583777,3.319084 -3.780827,5.050409 -0.8263,1.177896 -1.67496,2.340887 -2.466903,3.542556 -1.559099,2.365753 -2.99944,4.807982 -4.3649,7.290001 -2.55467,4.835125 -5.23189,9.785098 -6.23144,15.222839 -0.0803,0.43703 -0.10925,0.88196 -0.16387,1.32295 -0.0117,0.22401 -0.0254,0.44792 -0.0352,0.67202 -0.004,0.086 0.0671,0.21193 -0.006,0.25821 -2.92837,1.8668 -2.51706,2.1868 -2.48473,0.91146 0.014,-1.1564 -0.0542,-2.31261 -0.17571,-3.46246 -0.30669,-2.52786 -0.74002,-5.049229 -1.7837,-7.393692 -0.51725,-1.102778 -0.72029,-1.626282 -1.37867,-2.661414 -1.163489,-1.829263 -2.734589,-3.322267 -4.50033,-4.565449 -1.75094,-1.155684 -3.6336,-2.55361 -5.82513,-2.546694 0,0 2.25277,-1.636736 2.25277,-1.636736 z"
       inkscape:connector-curvature="0"
       inkscape:export-xdpi="16.2353"
       inkscape:export-ydpi="16.2353" />
  </g>
</svg>
